# xmcd
#
# Track frame offsets: 
#        150
#        21812
#        38103
#        54429
#        73905
#        88850
#        103974
#        123525
#        139134
#        160653
#        177627
#        190538
#        206338
#        219846
#        235012
#        248940
#        266269
#        283591
#        300028
#        317293
#
# Disc length: 4465 seconds
#
# Revision: 0
# Processed by: cddbd v1.5.2PL0 Copyright (c) Steve Scherf et al.
# Submitted via: ExactAudioCopyFreeDBPlugin 1.0
#
DISCID=10116f14
DTITLE=Kenny Rogers - 1997 - Love Songs
DYEAR=1997
DGENRE=Country
TTITLE0=Have I Told You Lately That I Love You
TTITLE1=Evergreen
TTITLE2=Lucille
TTITLE3=I only Have Eyes For You
TTITLE4=Crazy
TTITLE5=Misty
TTITLE6=She Believes In Me
TTITLE7=When I Fall In Love
TTITLE8=Always and Forever
TTITLE9=You Decorated My Life
TTITLE10=Ruby, Don't Take Your Love To Town
TTITLE11=Unchained Melody
TTITLE12=I Will Always Love You
TTITLE13=Can't Help Falling In Love
TTITLE14=Love Me Tender
TTITLE15=Endless Love
TTITLE16=I Swear
TTITLE17=Wind Beneath My Wings
TTITLE18=Lady
TTITLE19=We've Got Tonight
EXTD=
EXTT0=
EXTT1=
EXTT2=
EXTT3=
EXTT4=
EXTT5=
EXTT6=
EXTT7=
EXTT8=
EXTT9=
EXTT10=
EXTT11=
EXTT12=
EXTT13=
EXTT14=
EXTT15=
EXTT16=
EXTT17=
EXTT18=
EXTT19=
PLAYORDER=
